# xmcd CD database file
#
# Track frame offsets:
#	150
#	26092
#	48412
#	75962
#	95982
#	120775
#	141042
#	162770
#
# Disc length: 2512 seconds
#
# Revision: 0
# Processed by: cddbd v1.5.1PL0 Copyright (c) Steve Scherf et al.
# Submitted via: CDex 1.51
#
DISCID=5909ce08
DTITLE=Jimmy Smith - Plays Pretty Just For You
DYEAR=1957
DGENRE=Jazz
TTITLE0=The Nearness Of You
TTITLE1=The Jitterbug Waltz
TTITLE2=East Of The Sun
TTITLE3=Autumn In New York
TTITLE4=Penthouse Serenade
TTITLE5=The Very Thought Of You
TTITLE6=I Can't Get Started
TTITLE7=Old Devil Moon
EXTD=YEAR: 1957
EXTT0=
EXTT1=
EXTT2=
EXTT3=
EXTT4=
EXTT5=
EXTT6=
EXTT7=
PLAYORDER=
